<svg xmlns="http://www.w3.org/2000/svg" width="16.862" height="17.472" viewBox="0 0 16.862 17.472">
  <g id="Box" transform="translate(-0.569 -0.06)">
    <path id="Path" d="M9.5.75a.75.75,0,0,1-.75.75h-8A.75.75,0,0,1,.75,0h8A.75.75,0,0,1,9.5.75Z" transform="translate(4.25 7.25)"/>
    <path id="Shape" d="M8.431,17.472c-1.482,0-2.981-.074-4.456-.221l-1.23-.122A2.674,2.674,0,0,1,.385,14.947,24.63,24.63,0,0,1,.275,6.935l.1-.678a2.981,2.981,0,0,1,.44-1.171L2.005,1.84A2.355,2.355,0,0,1,3.894.314a32.94,32.94,0,0,1,9.073,0A2.355,2.355,0,0,1,14.856,1.84l1.189,3.247a2.99,2.99,0,0,1,.44,1.171l.1.678a24.63,24.63,0,0,1-.111,8.012,2.675,2.675,0,0,1-2.36,2.182l-1.23.122C11.412,17.4,9.913,17.472,8.431,17.472ZM2.116,5.841h0a1.5,1.5,0,0,0-.256.64l-.1.678a23.156,23.156,0,0,0,.1,7.525,1.169,1.169,0,0,0,1.031.953l1.23.122c1.426.142,2.875.213,4.308.213s2.882-.072,4.308-.213l1.23-.122A1.167,1.167,0,0,0,15,14.684a23.132,23.132,0,0,0,.1-7.525L15,6.481a1.489,1.489,0,0,0-.257-.64l-.018.007L14.7,5.785a1.5,1.5,0,0,0-1.034-.571l-.978-.1c-1.41-.14-2.843-.211-4.26-.211s-2.85.071-4.26.211l-.978.1a1.5,1.5,0,0,0-1.034.571l-.023.064ZM8.431,3.406c1.466,0,2.949.074,4.408.219l.978.1.138.017-.507-1.383A.854.854,0,0,0,12.76,1.8,31.421,31.421,0,0,0,4.1,1.8a.854.854,0,0,0-.688.554L2.907,3.738h.008c.043-.006.086-.012.13-.016l.977-.1C5.481,3.479,6.965,3.406,8.431,3.406Z" transform="translate(0.569 0.06)"/>
  </g>
</svg>
