<svg xmlns="http://www.w3.org/2000/svg" width="18.383" height="18.415" viewBox="0 0 18.383 18.415">
  <g id="Instagram" transform="translate(-0.808 -0.792)">
    <path id="Path" d="M3.25,0A3.25,3.25,0,1,0,6.5,3.25,3.25,3.25,0,0,0,3.25,0Z" transform="translate(6.75 6.75)"/>
    <path id="Shape" d="M9.192,18.415a47.294,47.294,0,0,1-5.23-.289,4.174,4.174,0,0,1-2.455-1.172,4.111,4.111,0,0,1-1.2-2.441A45.638,45.638,0,0,1,.31,3.9a4.112,4.112,0,0,1,1.2-2.442A4.174,4.174,0,0,1,3.962.289a47.491,47.491,0,0,1,10.461,0,4.174,4.174,0,0,1,2.455,1.172,4.112,4.112,0,0,1,1.2,2.442,45.736,45.736,0,0,1,0,10.611,4.111,4.111,0,0,1-1.2,2.441,4.175,4.175,0,0,1-2.455,1.172A47.294,47.294,0,0,1,9.192,18.415Zm0-13.957a4.75,4.75,0,1,0,4.75,4.75A4.755,4.755,0,0,0,9.192,4.458Zm5-1.25a1,1,0,1,0,1,1A1,1,0,0,0,14.192,3.208Z" transform="translate(0.808 0.792)"/>
  </g>
</svg>
