<svg xmlns="http://www.w3.org/2000/svg" width="17.761" height="17.773" viewBox="0 0 17.761 17.773">
  <g id="Layout" transform="translate(-0.12 -0.114)">
    <path id="Path" d="M5.948.114a18.766,18.766,0,0,0-4.136,0A1.916,1.916,0,0,0,.122,1.788a18.067,18.067,0,0,0,0,4.2,1.916,1.916,0,0,0,1.69,1.673,18.765,18.765,0,0,0,4.136,0,1.916,1.916,0,0,0,1.69-1.673,18.066,18.066,0,0,0,0-4.2A1.916,1.916,0,0,0,5.948.114Z" transform="translate(0.12 0.114)"/>
    <path id="Path-2" data-name="Path" d="M5.948.114a18.765,18.765,0,0,0-4.136,0A1.916,1.916,0,0,0,.122,1.788a18.067,18.067,0,0,0,0,4.2,1.916,1.916,0,0,0,1.69,1.673,18.765,18.765,0,0,0,4.136,0,1.916,1.916,0,0,0,1.69-1.673,18.065,18.065,0,0,0,0-4.2A1.916,1.916,0,0,0,5.948.114Z" transform="translate(0.12 10.114)"/>
    <path id="Path-3" data-name="Path" d="M5.948.114a18.766,18.766,0,0,0-4.136,0A1.916,1.916,0,0,0,.122,1.788a18.066,18.066,0,0,0,0,4.2,1.916,1.916,0,0,0,1.69,1.673,18.765,18.765,0,0,0,4.136,0,1.916,1.916,0,0,0,1.69-1.673,18.066,18.066,0,0,0,0-4.2A1.916,1.916,0,0,0,5.948.114Z" transform="translate(10.12 0.114)"/>
    <path id="Path-4" data-name="Path" d="M5.948.114a18.765,18.765,0,0,0-4.136,0A1.916,1.916,0,0,0,.122,1.788a18.065,18.065,0,0,0,0,4.2,1.916,1.916,0,0,0,1.69,1.673,18.765,18.765,0,0,0,4.136,0,1.916,1.916,0,0,0,1.69-1.673,18.065,18.065,0,0,0,0-4.2A1.916,1.916,0,0,0,5.948.114Z" transform="translate(10.12 10.114)"/>
  </g>
</svg>
