<svg xmlns="http://www.w3.org/2000/svg" width="16.467" height="16.458" viewBox="0 0 16.467 16.458">
  <g id="Phone" transform="translate(-0.167 -0.301)">
    <path id="Path" d="M.833,6.56A18.466,18.466,0,0,0,10.4,15.851l.68.3a3.5,3.5,0,0,0,4.331-1.247l.888-1.324a1,1,0,0,0-.2-1.335l-3.012-2.43A1,1,0,0,0,11.652,10l-.932,1.257A12.14,12.14,0,0,1,5.209,5.747l1.257-.932a1,1,0,0,0,.183-1.431L4.219.372a1,1,0,0,0-1.335-.2l-1.333.894A3.5,3.5,0,0,0,.314,5.419l.518,1.14Z" transform="translate(0.167 0.301)"/>
  </g>
</svg>
