<svg width="196" height="82" viewBox="0 0 196 82" fill="none" xmlns="http://www.w3.org/2000/svg">
<g clip-path="url(#clip0_20_3156)">
<g clip-path="url(#clip1_20_3156)">
<g clip-path="url(#clip2_20_3156)">
<path d="M41.0885 3.92826C44.0605 3.92604 46.9117 5.10405 49.0155 7.20335L74.7989 32.9868C76.8962 35.0919 78.0738 37.9423 78.0738 40.9138C78.0738 43.8853 76.8962 46.7357 74.7989 48.8407L49.0155 74.6033C46.9104 76.7006 44.06 77.8782 41.0885 77.8782C38.117 77.8782 35.2666 76.7006 33.1615 74.6033L7.37808 48.8199C5.28081 46.7148 4.10323 43.8644 4.10323 40.8929C4.10323 37.9214 5.28081 35.071 7.37808 32.966L33.1615 7.20335C35.2653 5.10405 38.1165 3.92604 41.0885 3.92826ZM41.0885 0.778342C39.2058 0.775099 37.3409 1.14384 35.6011 1.8634C33.8613 2.58295 32.2808 3.63913 30.9503 4.97128L5.14602 30.7548C3.81176 32.0866 2.75322 33.6685 2.03099 35.4099C1.30876 37.1514 0.937012 39.0181 0.937012 40.9033C0.937012 42.7886 1.30876 44.6553 2.03099 46.3967C2.75322 48.1382 3.81176 49.7201 5.14602 51.0519L30.9295 76.8354C33.6204 79.5202 37.2664 81.0279 41.0676 81.0279C44.8688 81.0279 48.5149 79.5202 51.2058 76.8354L76.9893 51.0519C78.3235 49.7201 79.3821 48.1382 80.1043 46.3967C80.8265 44.6553 81.1983 42.7886 81.1983 40.9033C81.1983 39.0181 80.8265 37.1514 80.1043 35.4099C79.3821 33.6685 78.3235 32.0866 76.9893 30.7548L51.2267 4.97128C49.8962 3.63913 48.3157 2.58295 46.5759 1.8634C44.8361 1.14384 42.9712 0.775099 41.0885 0.778342Z" fill="url(#paint0_radial_20_3156)"/>
<path d="M41.0885 10.7913C41.976 10.7909 42.8549 10.9658 43.6746 11.3059C44.4944 11.646 45.2389 12.1445 45.8656 12.773L69.2292 36.1367C70.4919 37.4059 71.2007 39.1234 71.2007 40.9137C71.2007 42.704 70.4919 44.4215 69.2292 45.6908L45.8656 69.0544C45.2387 69.6826 44.4941 70.181 43.6744 70.5211C42.8547 70.8612 41.976 71.0362 41.0885 71.0362C40.2011 71.0362 39.3223 70.8612 38.5026 70.5211C37.6829 70.181 36.9383 69.6826 36.3115 69.0544L12.9478 45.6908C11.6852 44.4215 10.9764 42.704 10.9764 40.9137C10.9764 39.1234 11.6852 37.4059 12.9478 36.1367L36.3115 12.773C36.9381 12.1445 37.6827 11.646 38.5024 11.3059C39.3222 10.9658 40.201 10.7909 41.0885 10.7913ZM41.0885 7.64137C39.7869 7.63955 38.4977 7.89475 37.2949 8.39234C36.0921 8.88992 34.9994 9.62009 34.0794 10.541L10.7158 33.9046C8.86232 35.7622 7.82141 38.2792 7.82141 40.9033C7.82141 43.5274 8.86232 46.0444 10.7158 47.902L34.0794 71.2656C35.9395 73.1224 38.4603 74.1652 41.0885 74.1652C43.7167 74.1652 46.2376 73.1224 48.0976 71.2656L71.4613 47.902C73.3147 46.0444 74.3556 43.5274 74.3556 40.9033C74.3556 38.2792 73.3147 35.7622 71.4613 33.9046L48.0976 10.541C47.1777 9.62009 46.085 8.88992 44.8822 8.39234C43.6794 7.89475 42.3902 7.63955 41.0885 7.64137Z" fill="url(#paint1_radial_20_3156)"/>
<path d="M54.6895 50.7181C54.269 50.7181 53.8658 50.551 53.5685 50.2537C53.2712 49.9564 53.1041 49.5532 53.1041 49.1327L53.1876 33.0284C53.1897 32.7157 53.2838 32.4105 53.4581 32.1508C53.6325 31.8912 53.8793 31.6886 54.168 31.5682C54.4555 31.4473 54.773 31.4165 55.0784 31.4799C55.3838 31.5432 55.6628 31.6976 55.8786 31.9228L63.8472 39.975C64.1255 40.2766 64.2754 40.6747 64.2652 41.0849C64.255 41.4951 64.0855 41.8853 63.7927 42.1727C63.4998 42.4601 63.1066 42.6223 62.6962 42.6248C62.2859 42.6273 61.8907 42.47 61.5943 42.1862L56.2958 36.8459L56.2332 49.1327C56.2414 49.3396 56.2074 49.5459 56.1333 49.7393C56.0592 49.9326 55.9465 50.1088 55.802 50.2571C55.6576 50.4054 55.4845 50.5228 55.2932 50.6021C55.1019 50.6813 54.8965 50.7208 54.6895 50.7181Z" fill="url(#paint2_radial_20_3156)"/>
<path d="M27.4041 50.9475C27.1935 50.9485 26.985 50.9064 26.7913 50.8239C26.5976 50.7414 26.4228 50.6202 26.2776 50.4677L18.3089 42.3322C18.1562 42.1859 18.0344 42.0104 17.9507 41.8162C17.8671 41.6219 17.8233 41.4129 17.8221 41.2014C17.8208 40.9899 17.862 40.7803 17.9432 40.585C18.0244 40.3898 18.1441 40.2128 18.295 40.0647C18.446 39.9165 18.6251 39.8002 18.8219 39.7227C19.0186 39.6451 19.2289 39.6078 19.4404 39.613C19.6518 39.6183 19.86 39.666 20.0526 39.7532C20.2453 39.8405 20.4185 39.9655 20.5619 40.121L25.8604 45.5238L25.9856 33.0702C25.99 32.653 26.1591 32.2544 26.456 31.9614C26.753 31.6683 27.1537 31.5045 27.571 31.5056H27.5918C28.009 31.51 28.4075 31.6791 28.7006 31.9761C28.9937 32.2731 29.1575 32.6738 29.1563 33.091L28.9895 49.3621C28.9899 49.6729 28.8965 49.9765 28.7216 50.2333C28.5467 50.4901 28.2983 50.6881 28.009 50.8015C27.8215 50.8966 27.6143 50.9466 27.4041 50.9475Z" fill="url(#paint3_radial_20_3156)"/>
<path d="M34.0377 58.9997C33.6172 58.9997 33.2139 58.8327 32.9166 58.5354C32.6193 58.2381 32.4523 57.8348 32.4523 57.4143L32.6192 24.8095C32.6194 24.6024 32.6608 24.3973 32.7408 24.2063C32.8208 24.0152 32.9379 23.8419 33.0854 23.6964C33.2328 23.5509 33.4076 23.4361 33.5997 23.3586C33.7918 23.2811 33.9974 23.2425 34.2045 23.245C34.4117 23.2452 34.6167 23.2866 34.8078 23.3666C34.9989 23.4466 35.1721 23.5638 35.3176 23.7112C35.4631 23.8586 35.578 24.0335 35.6554 24.2256C35.7329 24.4177 35.7716 24.6232 35.7691 24.8304L35.6022 57.4352C35.5995 57.8493 35.4337 58.2457 35.1409 58.5385C34.8481 58.8313 34.4518 58.997 34.0377 58.9997Z" fill="url(#paint4_radial_20_3156)"/>
<path d="M40.8382 65.8837C40.6277 65.8846 40.4191 65.8426 40.2254 65.76C40.0317 65.6775 39.8569 65.5563 39.7117 65.4039L35.7274 61.3361C35.4492 61.0345 35.2993 60.6364 35.3094 60.2262C35.3196 59.8159 35.4891 59.4258 35.782 59.1384C36.0748 58.8509 36.4681 58.6888 36.8784 58.6863C37.2887 58.6837 37.684 58.8411 37.9803 59.1249L39.2737 60.4391L39.4197 18.4262C39.4197 17.6544 39.4197 17.2372 39.9203 16.7782C40.1081 16.5905 41.0885 15.7978 42.2776 16.9451L42.7782 17.4458C43.1328 17.8004 43.5918 18.2802 44.1967 18.8851C45.2189 19.9282 46.2202 20.9921 46.2202 20.9921C46.4978 21.2959 46.6458 21.6962 46.6327 22.1076C46.6196 22.5189 46.4464 22.9089 46.1499 23.1945C45.8535 23.4801 45.4573 23.6386 45.0457 23.6363C44.6341 23.6341 44.2397 23.4712 43.9464 23.1824L42.5905 21.7639C42.5488 32.7782 42.4444 63.9645 42.4444 64.34C42.4423 64.6527 42.3482 64.9579 42.1739 65.2176C41.9996 65.4772 41.7527 65.6799 41.464 65.8002C41.2584 65.8471 41.0489 65.8751 40.8382 65.8837Z" fill="url(#paint5_radial_20_3156)"/>
<path d="M47.9725 59.0833C47.5562 59.0811 47.1573 58.9163 46.8611 58.6239C46.5648 58.3316 46.3947 57.9349 46.3871 57.5187C46.3245 46.6505 46.3871 24.7887 46.3871 24.5593C46.3873 24.3521 46.4287 24.1471 46.5087 23.956C46.5887 23.765 46.7058 23.5917 46.8533 23.4462C47.0007 23.3007 47.1755 23.1859 47.3677 23.1084C47.5598 23.0309 47.7653 22.9923 47.9725 22.9947C48.1801 22.9933 48.3859 23.0335 48.5777 23.1129C48.7696 23.1923 48.9435 23.3094 49.0894 23.4572C49.2352 23.605 49.35 23.7805 49.4268 23.9734C49.5037 24.1662 49.5412 24.3725 49.537 24.5801C49.537 24.8096 49.4744 46.6713 49.537 57.5187C49.5389 57.7247 49.4998 57.929 49.4219 58.1197C49.3439 58.3104 49.2288 58.4837 49.0831 58.6294C48.9374 58.775 48.7642 58.8902 48.5735 58.9681C48.3828 59.0461 48.1785 59.0852 47.9725 59.0833Z" fill="url(#paint6_radial_20_3156)"/>
<path d="M50.9554 29.4613H45.2397C44.8192 29.4613 44.416 29.2943 44.1187 28.997C43.8213 28.6996 43.6543 28.2964 43.6543 27.8759C43.6543 27.4554 43.8213 27.0522 44.1187 26.7549C44.416 26.4576 44.8192 26.2905 45.2397 26.2905H50.9554C51.3759 26.2905 51.7792 26.4576 52.0765 26.7549C52.3738 27.0522 52.5408 27.4554 52.5408 27.8759C52.5408 28.2964 52.3738 28.6996 52.0765 28.997C51.7792 29.2943 51.3759 29.4613 50.9554 29.4613Z" fill="url(#paint7_radial_20_3156)"/>
<path d="M97.0153 59.563C98.1626 59.5839 99.0179 59.4379 99.5603 59.1041C100.066 58.813 100.473 58.377 100.728 57.8525C101.129 56.8103 101.265 55.6851 101.125 54.5774C101.083 53.687 101.104 52.7948 101.187 51.9073C101.354 51.0311 101.751 50.4262 102.356 50.1133C102.961 49.8004 103.565 49.8629 104.17 50.3219C104.775 50.7808 105.151 51.7404 105.297 53.2215C105.318 53.5161 105.36 53.8088 105.422 54.0976C105.526 54.7026 105.61 55.2866 105.651 55.8499C105.689 56.4822 105.78 57.1103 105.923 57.7273C106.045 58.2418 106.33 58.7029 106.736 59.0415C107.133 59.3753 107.717 59.5422 108.447 59.5422V64.7573C107.1 64.7798 105.767 64.4719 104.567 63.8603C103.419 63.1927 102.689 62.1289 102.397 60.6686C101.997 61.7998 101.289 62.7968 100.353 63.5474C99.4532 64.2916 98.3287 64.7105 97.1613 64.7364V64.7573H95.8888C93.8654 64.7573 92.3008 64.3818 91.1952 63.6308C90.108 62.9027 89.2763 61.8522 88.8171 60.6269C88.3206 59.2592 88.0323 57.8247 87.9619 56.3714C87.8784 54.786 87.8367 53.1589 87.8784 51.4483V51.0937L87.9619 41.4979C88.0453 40.3715 88.4625 39.5579 89.2552 39.0781C89.6013 38.8442 90.0071 38.714 90.4247 38.7029C90.8423 38.6918 91.2544 38.8003 91.6124 39.0155C92.3843 39.4536 92.8015 40.5175 92.8641 42.1654L92.6555 55.7664C92.7389 57.2475 93.1561 58.2488 93.8654 58.7703C94.6312 59.3129 95.5562 59.5845 96.4938 59.5422L97.0153 59.563ZM104.316 44.1889C106.027 44.3558 107.299 44.6687 108.092 45.1276C108.885 45.5866 109.073 46.0455 108.635 46.5044C108.196 46.9633 106.966 47.2971 104.942 47.5266C103.878 47.6726 102.543 47.8186 100.979 47.9855C99.5726 48.1431 98.1591 48.2266 96.7441 48.2358H96.3478C95.7848 48.2724 95.2197 48.2088 94.6789 48.0481C94.2617 47.8812 94.0531 47.464 94.0531 46.7547C94.1157 45.8786 94.5746 45.2528 95.409 44.8773C96.3492 44.4783 97.3514 44.2454 98.3712 44.1889C99.4052 44.1073 100.443 44.0864 101.479 44.1263H102.543C103.107 44.1055 103.378 44.1055 103.357 44.1055C103.678 44.1151 103.998 44.1429 104.316 44.1889ZM108.426 59.563C108.872 59.5625 109.31 59.6775 109.698 59.8968C110.111 60.1151 110.452 60.4484 110.679 60.8564C110.911 61.2516 111.033 61.7017 111.033 62.1601C111.033 62.6186 110.911 63.0687 110.679 63.4639C110.46 63.8708 110.126 64.2044 109.719 64.4235C109.326 64.6517 108.88 64.7739 108.426 64.7781C107.965 64.7736 107.513 64.6515 107.112 64.4235C106.705 64.2044 106.371 63.8708 106.152 63.4639C105.92 63.0687 105.798 62.6186 105.798 62.1601C105.798 61.7017 105.92 61.2516 106.152 60.8564C106.373 60.444 106.716 60.1092 107.133 59.8968C107.532 59.6867 107.975 59.5724 108.426 59.563Z" fill="black"/>
<path d="M120.608 59.6048C120.726 59.5868 120.844 59.5798 120.963 59.5839C121.416 59.5832 121.861 59.6981 122.256 59.9177C122.665 60.1418 123.004 60.4737 123.237 60.8772C123.469 61.2725 123.591 61.7226 123.591 62.181C123.591 62.6394 123.469 63.0895 123.237 63.4848C123.018 63.8917 122.684 64.2253 122.277 64.4444C121.876 64.6724 121.424 64.7944 120.963 64.799H108.635V64.7781C108.531 64.7955 108.426 64.8024 108.322 64.799C107.867 64.7921 107.422 64.6701 107.028 64.4444C106.621 64.2253 106.288 63.8917 106.069 63.4848C105.837 63.0895 105.714 62.6394 105.714 62.181C105.714 61.7226 105.837 61.2725 106.069 60.8772C106.282 60.466 106.617 60.1307 107.028 59.9177C107.423 59.6956 107.869 59.5806 108.322 59.5839C108.44 59.5804 108.559 59.5874 108.676 59.6048H120.608Z" fill="black"/>
<path d="M133.083 59.6048C133.2 59.5868 133.319 59.5798 133.438 59.5839C133.89 59.5832 134.335 59.6981 134.731 59.9177C135.139 60.1418 135.478 60.4737 135.711 60.8772C135.943 61.2725 136.066 61.7226 136.066 62.181C136.066 62.6394 135.943 63.0895 135.711 63.4848C135.492 63.8917 135.159 64.2253 134.752 64.4444C134.351 64.6724 133.899 64.7944 133.438 64.799H121.109V64.7781C121.006 64.7955 120.901 64.8024 120.796 64.799C120.342 64.7921 119.897 64.6701 119.503 64.4444C119.096 64.2253 118.762 63.8917 118.543 63.4848C118.311 63.0895 118.189 62.6394 118.189 62.181C118.189 61.7226 118.311 61.2725 118.543 60.8772C118.756 60.466 119.091 60.1307 119.503 59.9177C119.897 59.6956 120.343 59.5806 120.796 59.5839C120.915 59.5804 121.033 59.5874 121.151 59.6048H133.083Z" fill="black"/>
<path d="M133.375 64.799C132.921 64.7921 132.476 64.6701 132.082 64.4444C131.675 64.2253 131.341 63.8917 131.122 63.4848C130.89 63.0896 130.767 62.6395 130.767 62.1811C130.767 61.7227 130.89 61.2726 131.122 60.8773C131.335 60.466 131.67 60.1308 132.082 59.9177C132.476 59.6957 132.922 59.5806 133.375 59.5839H133.396C134.606 59.6048 135.482 59.4171 136.024 59.0624C136.531 58.7396 136.902 58.2424 137.067 57.6648C137.23 57.0722 137.328 56.4637 137.359 55.8499C137.401 55.2647 137.498 54.6849 137.651 54.1185C137.79 53.5955 138.116 53.1422 138.569 52.846C138.867 52.6664 139.198 52.5496 139.542 52.503C139.887 52.4563 140.237 52.4808 140.572 52.5748C140.902 52.6702 141.205 52.8429 141.456 53.0787C141.706 53.3145 141.896 53.6066 142.011 53.9308C142.204 54.6445 142.295 55.3819 142.282 56.1211C142.297 56.7429 142.353 57.3631 142.449 57.9777C142.72 59.271 143.117 59.7925 143.617 59.5631C144.118 59.3336 144.577 58.7078 145.015 57.7065C145.418 56.7519 145.658 55.7365 145.724 54.7026C145.787 53.6596 146.162 52.9295 146.83 52.4914C147.497 52.0533 148.207 52.0742 148.916 52.5123C149.625 52.9503 150.084 53.9516 150.293 55.4953L150.314 57.1224C150.376 58.833 150.627 59.6465 151.085 59.5422C151.544 59.4379 152.066 58.6661 152.65 57.2476C153.03 56.2645 153.2 55.213 153.151 54.1602C153.192 52.5748 153.61 51.4901 154.402 50.906C155.174 50.3428 156.009 50.3219 156.885 50.8643C157.761 51.4067 158.303 52.5331 158.553 54.2437C158.595 54.5566 158.637 54.8903 158.679 55.1824C158.72 56.4966 158.971 57.5396 159.409 58.3532C159.847 59.1667 160.577 59.5631 161.578 59.5631H161.62C162.072 59.5624 162.518 59.6773 162.913 59.8968C163.322 60.121 163.661 60.4529 163.894 60.8564C164.126 61.2517 164.248 61.7018 164.248 62.1602C164.248 62.6186 164.126 63.0687 163.894 63.464C163.675 63.8708 163.341 64.2045 162.934 64.4236C162.533 64.6516 162.081 64.7736 161.62 64.7782C160.327 64.799 159.304 64.7365 158.553 64.5487C157.594 64.2984 156.801 63.5683 156.134 62.3584C155.195 63.8603 153.881 64.6739 152.17 64.7782C150.46 64.8825 148.916 64.2984 147.518 63.005C146.955 63.8458 146.101 64.4479 145.119 64.6947C144.163 64.9179 143.159 64.8227 142.262 64.4236C141.298 64.0022 140.5 63.2768 139.988 62.3584C138.924 63.4848 137.923 64.1732 136.942 64.4444C135.784 64.7342 134.587 64.8398 133.396 64.7573H133.375V64.799Z" fill="black"/>
<path d="M165.354 68.6999C167.065 68.8668 168.337 69.1797 169.13 69.6178C169.922 70.0559 170.11 70.5148 169.672 70.9737C169.234 71.4326 168.003 71.7873 165.98 72.0167C164.916 72.1628 163.602 72.3088 162.037 72.4757C160.631 72.6332 159.218 72.7168 157.803 72.726H157.406C156.842 72.7571 156.277 72.6864 155.737 72.5174C155.32 72.3714 155.112 71.9333 155.112 71.224C155.139 70.8127 155.283 70.4177 155.527 70.0852C155.771 69.7528 156.104 69.4966 156.488 69.3466C157.428 68.9453 158.43 68.7123 159.451 68.6582C160.577 68.5956 161.62 68.5539 162.559 68.5748C162.851 68.5956 163.101 68.5956 163.331 68.5956H163.623C164.186 68.5748 164.457 68.5748 164.436 68.5748C164.394 68.6165 164.707 68.6374 165.354 68.6999ZM161.557 64.799V59.5839H161.87C163.477 59.4379 164.603 58.7078 165.25 57.3727C165.881 56.0897 166.015 54.6182 165.625 53.2424C165.166 51.5944 165.104 50.4888 165.417 49.8838C165.73 49.2789 166.251 49.112 166.919 49.3623C167.586 49.6127 168.254 50.1759 168.879 51.052C169.505 51.9282 169.881 53.0338 170.048 54.3688C170.227 56.0123 170.027 57.675 169.464 59.2293C168.922 60.7408 167.96 62.0655 166.689 63.0468C165.375 64.0481 163.664 64.6322 161.557 64.799Z" fill="black"/>
<path d="M179.143 63.2552C177.697 63.2466 176.287 62.8033 175.096 61.9827C173.975 61.2326 173.141 60.1261 172.728 58.8425C172.316 57.5589 172.349 56.1735 172.822 54.911C173.243 53.7163 173.978 52.6571 174.95 51.8446C176.019 50.9614 177.341 50.4425 178.725 50.3635C181.02 50.2383 182.752 50.9058 183.961 52.3452C184.957 53.555 185.496 55.0759 185.484 56.6424C185.598 59.1757 185.156 61.703 184.191 64.0479C183.21 66.3843 181.542 68.1991 179.164 69.4925C178.291 69.944 177.366 70.2873 176.41 70.5146C175.455 70.7465 174.465 70.8031 173.49 70.6815C173.033 70.6196 172.59 70.4858 172.175 70.2852C171.675 70.0765 171.362 69.7428 171.278 69.3256C171.257 68.971 171.445 68.658 171.8 68.366C172.183 68.0733 172.604 67.8347 173.051 67.6567C173.403 67.4993 173.766 67.3669 174.136 67.2604C176.431 66.572 178.079 65.2369 179.143 63.2552ZM179.873 59.542C180.937 59.4586 181.604 59.0414 181.855 58.2696C181.978 57.8916 182.009 57.4893 181.944 57.097C181.878 56.7046 181.719 56.334 181.479 56.0166C180.978 55.2865 180.102 54.9319 178.851 54.9528C178.244 54.9868 177.676 55.2563 177.265 55.7037C177.055 55.9473 176.9 56.2345 176.814 56.5446C176.727 56.8548 176.711 57.1803 176.765 57.4977C176.869 58.054 177.224 58.5338 177.828 58.9371C178.433 59.3401 179.146 59.551 179.873 59.542Z" fill="black"/>
<path d="M85.3126 28.2432C84.9612 27.9414 84.6801 27.5664 84.4891 27.1444C84.2981 26.7224 84.2018 26.2636 84.207 25.8005C84.2136 25.248 84.324 24.7017 84.5324 24.19C84.7329 23.6603 85.0276 23.1713 85.4023 22.7465C85.5543 22.5733 85.7689 22.4675 85.9989 22.4524C86.2307 22.4241 86.4647 22.4844 86.6539 22.6213C86.7442 22.6836 86.8203 22.7644 86.8771 22.8582C86.9339 22.9521 86.9702 23.0569 86.9835 23.1658C86.9965 23.2729 86.986 23.3815 86.9529 23.4841C86.9198 23.5868 86.8647 23.681 86.7916 23.7603C86.544 24.0468 86.3485 24.3744 86.2138 24.7282C86.0746 25.0707 85.9976 25.4352 85.9864 25.8046C85.9827 26.0509 86.0328 26.295 86.1333 26.5199C86.2339 26.7447 86.3824 26.9449 86.5684 27.1063C87.0774 27.5666 87.7908 27.7968 88.7087 27.7968C89.8671 27.7968 90.6668 27.5082 91.1076 26.9311C91.4351 26.4972 91.5853 25.9006 91.5582 25.1475C91.5137 24.3213 91.32 23.51 90.9866 22.7528C90.9421 22.6536 90.9212 22.5455 90.9256 22.4369C90.9299 22.3283 90.9594 22.2222 91.0117 22.1269C91.0626 22.0276 91.133 21.9395 91.2186 21.8678C91.3043 21.7961 91.4034 21.7424 91.5102 21.7097C91.7304 21.6288 91.9734 21.6363 92.1882 21.7306C92.2933 21.7697 92.3893 21.8301 92.4701 21.908C92.5508 21.9859 92.6146 22.0796 92.6575 22.1833C93.0549 23.1042 93.2872 24.0878 93.3438 25.0891C93.3828 26.2017 93.1241 27.1195 92.5678 27.8427C92.1669 28.3632 91.6308 28.7637 91.0179 29.0004C90.2818 29.2839 89.4973 29.4207 88.7087 29.4031C87.2943 29.4058 86.1623 29.0192 85.3126 28.2432ZM89.954 22.1103C89.951 22.2411 89.9204 22.3698 89.8644 22.488C89.8083 22.6063 89.728 22.7114 89.6286 22.7966C89.4373 22.9842 89.1811 23.091 88.9131 23.0949C88.6024 23.0812 88.3021 22.9792 88.0474 22.8007C87.9484 22.7145 87.8685 22.6085 87.8128 22.4896C87.7571 22.3707 87.7269 22.2415 87.724 22.1103C87.7323 21.9814 87.7676 21.8558 87.8276 21.7415C87.8877 21.6272 87.9711 21.5268 88.0724 21.4469C88.2712 21.245 88.5402 21.1277 88.8234 21.1194C89.1064 21.1251 89.3777 21.2333 89.5869 21.4239C89.6944 21.5042 89.7827 21.6074 89.8451 21.7262C89.9076 21.845 89.9426 21.9762 89.9478 22.1103H89.954Z" fill="black"/>
<path d="M96.8108 25.669C96.555 25.6445 96.3029 25.5899 96.0599 25.5063C95.7802 25.4055 95.5245 25.2478 95.3089 25.0432C95.0265 24.7735 94.828 24.4279 94.7373 24.0481C94.6539 23.7283 94.6135 22.8243 94.6163 21.3363V20.2933C94.6163 19.9053 94.6163 19.5632 94.5996 19.2649C94.5928 18.6713 94.5462 18.079 94.4599 17.4917C94.4416 17.3851 94.4466 17.2758 94.4747 17.1714C94.5028 17.0669 94.5533 16.9698 94.6226 16.8868C94.7687 16.7096 94.9783 16.5966 95.2067 16.5718C95.4376 16.5361 95.6735 16.5882 95.8679 16.7178C95.961 16.7757 96.0407 16.8527 96.1018 16.9437C96.1629 17.0347 96.2041 17.1375 96.2226 17.2456C96.3152 17.882 96.3675 18.5237 96.379 19.1668C96.379 19.4818 96.3915 19.8448 96.3957 20.2557V22.0393C96.3957 22.3084 96.3957 22.5378 96.3957 22.7256C96.3924 23.0405 96.4148 23.3551 96.4625 23.6664C96.4727 23.734 96.4986 23.7982 96.538 23.854C96.5775 23.9098 96.6295 23.9555 96.6898 23.9876C96.9399 24.0584 97.2002 24.0859 97.4596 24.069C97.6906 24.065 97.9144 24.1493 98.0854 24.3047C98.1677 24.375 98.2338 24.4624 98.2792 24.5607C98.3245 24.659 98.348 24.766 98.348 24.8742C98.348 24.9825 98.3245 25.0894 98.2792 25.1878C98.2338 25.2861 98.1677 25.3734 98.0854 25.4437C97.9152 25.6006 97.691 25.6858 97.4596 25.6815C97.1383 25.6878 96.9193 25.6794 96.8108 25.669Z" fill="black"/>
<path d="M102.575 24.0794C102.806 24.0757 103.029 24.16 103.2 24.3152C103.283 24.3858 103.348 24.4735 103.393 24.5723C103.438 24.671 103.46 24.7784 103.459 24.8867C103.459 24.9947 103.436 25.1014 103.392 25.1997C103.347 25.298 103.282 25.3855 103.2 25.4562C103.029 25.6114 102.806 25.6957 102.575 25.6919C102.003 25.7092 101.442 25.5279 100.989 25.1788C100.906 25.1232 100.828 25.0619 100.753 24.9952C100.318 25.4583 99.2223 25.6906 97.4659 25.6919C97.235 25.6951 97.0115 25.6109 96.84 25.4562C96.7582 25.3857 96.6927 25.2983 96.648 25.2C96.6034 25.1016 96.5806 24.9947 96.5814 24.8867C96.5797 24.7783 96.6021 24.6708 96.6468 24.572C96.6915 24.4732 96.7575 24.3855 96.84 24.3152C97.0115 24.1605 97.235 24.0763 97.4659 24.0794C98.5784 24.0544 99.2564 23.9306 99.4998 23.7081C99.6209 23.5882 99.7099 23.4398 99.7587 23.2765C99.8076 23.1132 99.8146 22.9403 99.7793 22.7736C99.7647 22.6588 99.7501 22.5316 99.7376 22.3939L99.7209 22.2083L99.7063 22.0351C99.6938 21.8794 99.6833 21.7688 99.675 21.7034C99.6627 21.5953 99.6751 21.4859 99.7112 21.3833C99.7474 21.2806 99.8063 21.1876 99.8836 21.111C100.043 20.9425 100.258 20.8387 100.489 20.8194C100.72 20.8002 100.95 20.8669 101.135 21.0067C101.225 21.0682 101.3 21.149 101.355 21.2432C101.41 21.3374 101.443 21.4426 101.452 21.5512C101.452 21.6263 101.473 21.7472 101.49 21.91C101.561 22.7444 101.671 23.3159 101.819 23.6247C101.885 23.7672 101.993 23.8868 102.127 23.9678C102.262 24.0489 102.418 24.0877 102.575 24.0794ZM97.8288 28.2932C97.6979 28.2217 97.5928 28.1107 97.5284 27.9762C97.4854 27.8916 97.4614 27.7987 97.4582 27.7039C97.4549 27.6091 97.4725 27.5148 97.5097 27.4275C97.549 27.3366 97.6062 27.2545 97.6779 27.186C97.7495 27.1176 97.8342 27.0642 97.9269 27.0291C98.4566 26.8247 99.0071 26.6792 99.5686 26.5952C100.165 26.513 100.771 26.5235 101.365 26.6265C101.569 26.653 101.755 26.7586 101.882 26.9206C101.944 26.9932 101.989 27.0791 102.013 27.1717C102.037 27.2642 102.039 27.361 102.02 27.4547C102.002 27.5512 101.965 27.6428 101.909 27.7234C101.853 27.8041 101.781 27.8718 101.696 27.9219C101.523 28.038 101.312 28.0828 101.106 28.0471C100.693 27.9699 100.271 27.9594 99.8544 28.0158C99.4176 28.0742 98.9896 28.1856 98.5798 28.3475C98.4765 28.3865 98.3669 28.4063 98.2565 28.4059C98.1064 28.4075 97.9587 28.3686 97.8288 28.2932Z" fill="black"/>
<path d="M107.06 24.0794C107.291 24.0748 107.515 24.1592 107.685 24.3151C107.768 24.3855 107.834 24.4732 107.879 24.572C107.923 24.6708 107.946 24.7783 107.944 24.8867C107.945 24.9947 107.922 25.1016 107.877 25.1999C107.833 25.2983 107.767 25.3857 107.685 25.4562C107.515 25.6121 107.291 25.6965 107.06 25.6919C106.507 25.707 105.963 25.5463 105.507 25.233C105.425 25.1774 105.347 25.1161 105.274 25.0494C104.731 25.4778 103.836 25.6919 102.587 25.6919C102.356 25.6942 102.133 25.6102 101.961 25.4562C101.88 25.3855 101.814 25.298 101.77 25.1997C101.725 25.1014 101.702 24.9947 101.703 24.8867C101.701 24.7783 101.724 24.671 101.769 24.5723C101.813 24.4735 101.879 24.3858 101.961 24.3151C102.133 24.1612 102.356 24.0771 102.587 24.0794C102.884 24.0841 103.181 24.068 103.476 24.0314C103.715 24.0242 103.946 23.9426 104.137 23.7978C104.301 23.6351 104.355 23.2937 104.3 22.7736C104.283 22.6588 104.27 22.5316 104.258 22.3939L104.239 22.2082L104.223 22.0288C104.21 21.8731 104.2 21.7625 104.191 21.6972C104.179 21.5891 104.191 21.4796 104.227 21.3769C104.263 21.2743 104.322 21.1812 104.4 21.1047C104.559 20.9362 104.775 20.8324 105.006 20.8131C105.237 20.7939 105.467 20.8606 105.651 21.0004C105.742 21.0615 105.818 21.1422 105.873 21.2364C105.928 21.3306 105.962 21.436 105.971 21.5449C105.971 21.62 105.991 21.741 106.006 21.9037C106.078 22.7381 106.189 23.3097 106.338 23.6184C106.398 23.759 106.499 23.8781 106.627 23.9604C106.756 24.0426 106.907 24.0841 107.06 24.0794ZM105.478 19.1146C105.475 19.2452 105.445 19.3736 105.389 19.4915C105.332 19.6094 105.252 19.7141 105.153 19.7989C104.963 19.9886 104.706 20.0964 104.437 20.0993C104.127 20.0853 103.827 19.9833 103.572 19.8051C103.474 19.7181 103.395 19.6119 103.34 19.4931C103.285 19.3743 103.255 19.2455 103.252 19.1146C103.261 18.9857 103.297 18.8599 103.357 18.7454C103.417 18.6308 103.5 18.53 103.601 18.4492C103.8 18.2479 104.069 18.1313 104.352 18.1238C104.635 18.1295 104.906 18.2377 105.115 18.4283C105.223 18.5082 105.312 18.6114 105.375 18.7302C105.438 18.849 105.473 18.9804 105.478 19.1146Z" fill="black"/>
<path d="M107.089 25.6921C106.858 25.6944 106.635 25.6103 106.463 25.4563C106.381 25.3856 106.316 25.2981 106.271 25.1998C106.227 25.1015 106.204 24.9948 106.204 24.8869C106.203 24.7785 106.226 24.6711 106.27 24.5724C106.315 24.4737 106.381 24.3859 106.463 24.3153C106.635 24.1613 106.858 24.0772 107.089 24.0796C107.57 24.0901 108.052 24.065 108.53 24.0045C108.947 23.9314 109.237 23.7959 109.379 23.5872C109.424 23.5041 109.447 23.4106 109.444 23.3161C109.454 23.1092 109.434 22.902 109.385 22.7007C109.265 22.1717 109.071 21.6625 108.808 21.1883C108.755 21.0935 108.724 20.9879 108.718 20.8795C108.712 20.7711 108.73 20.6627 108.772 20.5625C108.811 20.4584 108.871 20.3635 108.949 20.2838C109.027 20.2041 109.12 20.1413 109.223 20.0994C109.439 20.0027 109.683 19.9916 109.907 20.0681C110.015 20.0989 110.116 20.1518 110.203 20.2237C110.29 20.2955 110.361 20.3846 110.412 20.4853C110.464 20.5792 110.514 20.6772 110.562 20.7773C110.627 20.9129 110.689 21.0464 110.75 21.18C110.889 21.5188 111.004 21.8674 111.092 22.223C111.324 23.1617 111.26 23.8981 110.9 24.4321C110.523 24.9884 109.936 25.3583 109.137 25.5419C108.794 25.6161 108.445 25.6615 108.094 25.6775C107.938 25.6879 107.767 25.6962 107.577 25.7004L107.089 25.6921ZM109.901 27.4986C109.899 27.6198 109.871 27.7393 109.819 27.8489C109.767 27.9586 109.693 28.056 109.6 28.1348C109.426 28.3127 109.188 28.4146 108.939 28.4185C108.65 28.4053 108.37 28.309 108.134 28.1411C108.042 28.0608 107.968 27.9621 107.916 27.8515C107.864 27.7409 107.836 27.6207 107.833 27.4986C107.841 27.3797 107.874 27.2638 107.93 27.1588C107.986 27.0537 108.064 26.9619 108.159 26.8895C108.34 26.7004 108.588 26.5903 108.849 26.5828C109.112 26.5871 109.364 26.6864 109.559 26.8623C109.66 26.936 109.743 27.0314 109.802 27.1415C109.861 27.2516 109.895 27.3737 109.901 27.4986Z" fill="black"/>
<path d="M118.737 29.0109C118.158 28.8123 117.626 28.4955 117.175 28.0805C116.801 27.7434 116.509 27.3258 116.32 26.8593C116.132 26.3928 116.052 25.8895 116.086 25.3875C116.122 24.4863 116.533 23.4794 117.319 22.3669C117.384 22.2736 117.467 22.1942 117.562 22.1333C117.658 22.0724 117.766 22.0312 117.878 22.0122C118.106 21.964 118.344 22.0027 118.545 22.1207C118.642 22.1733 118.727 22.2455 118.794 22.3328C118.861 22.4202 118.909 22.5206 118.935 22.6276C118.964 22.7312 118.968 22.8399 118.948 22.9454C118.928 23.0509 118.885 23.1505 118.821 23.2368C118.207 24.1004 117.889 24.8368 117.865 25.4459C117.845 25.7264 117.887 26.0079 117.99 26.2697C118.093 26.5315 118.254 26.7668 118.46 26.9583C119.002 27.4714 119.748 27.7273 120.696 27.7259C120.842 27.7261 120.989 27.7171 121.134 27.6988C121.328 27.6753 121.519 27.6334 121.706 27.5736C122.163 27.4524 122.569 27.185 122.861 26.8122C123.447 26.0432 123.471 24.8771 122.934 23.3139C122.855 23.1241 122.759 22.88 122.651 22.5776C122.613 22.4797 122.598 22.3748 122.607 22.2704C122.616 22.1661 122.648 22.065 122.701 21.9747C122.752 21.8773 122.823 21.7913 122.909 21.7221C122.994 21.6529 123.093 21.6018 123.199 21.5721C123.418 21.4952 123.659 21.5049 123.871 21.5992C123.972 21.6374 124.064 21.6958 124.141 21.7708C124.219 21.8457 124.28 21.9357 124.322 22.0352C124.422 22.2751 124.516 22.5108 124.599 22.7424C124.73 23.0836 124.912 23.4029 125.139 23.6894C125.31 23.9009 125.556 24.039 125.826 24.0753C125.954 24.1024 126.087 24.1024 126.216 24.0753C126.25 24.0698 126.283 24.057 126.312 24.0378L126.343 24.0211L126.366 24.0044C126.412 23.965 126.453 23.9193 126.487 23.8688C126.549 23.7814 126.6 23.686 126.637 23.5851C126.768 23.1866 126.833 22.7695 126.829 22.3502C126.833 22.2419 126.859 22.1356 126.906 22.0382C126.954 21.9408 127.021 21.8545 127.104 21.7849C127.281 21.6388 127.505 21.5606 127.734 21.5644C127.963 21.5683 128.184 21.6538 128.356 21.8057C128.436 21.8769 128.5 21.9644 128.543 22.0622C128.587 22.16 128.609 22.266 128.608 22.3731V22.3898C128.579 22.8005 128.611 23.2133 128.704 23.6143C128.809 23.9481 128.996 24.115 129.27 24.115C129.618 24.115 129.827 23.9731 129.895 23.6978C129.938 23.2979 129.918 22.8939 129.835 22.5004L129.799 22.2772C129.783 22.1716 129.791 22.0638 129.821 21.9614C129.851 21.8591 129.904 21.7646 129.975 21.6847C130.119 21.5102 130.325 21.3987 130.55 21.3739C130.782 21.338 131.018 21.3909 131.212 21.522C131.304 21.5793 131.383 21.6553 131.444 21.7451C131.505 21.835 131.547 21.9366 131.566 22.0435L131.623 22.2438C131.762 23.0282 132.013 23.5601 132.374 23.8438C132.496 23.9428 132.638 24.014 132.791 24.0524C132.846 24.0646 132.903 24.0723 132.96 24.0753H133.033H133.083C133.314 24.0712 133.538 24.1555 133.709 24.3111C133.792 24.3809 133.859 24.4684 133.905 24.5672C133.951 24.666 133.974 24.7737 133.974 24.8826C133.975 24.992 133.953 25.1004 133.907 25.1997C133.861 25.299 133.793 25.3867 133.709 25.4563C133.538 25.6119 133.314 25.6962 133.083 25.692C132.343 25.7123 131.622 25.454 131.064 24.9682L131.041 24.9995C130.846 25.2049 130.613 25.37 130.354 25.4855C129.975 25.6494 129.566 25.7305 129.153 25.7233C128.613 25.7375 128.089 25.5407 127.693 25.1747L127.645 25.1309L127.524 25.2289C127.344 25.3688 127.144 25.4787 126.929 25.5543C126.636 25.6585 126.327 25.7101 126.015 25.7066C125.871 25.7067 125.727 25.6976 125.584 25.6795C125.416 25.6592 125.25 25.6229 125.089 25.571C125.069 26.319 124.824 27.0436 124.387 27.651C123.95 28.2583 123.341 28.7205 122.638 28.9775C122.022 29.2199 121.365 29.3417 120.702 29.3363C120.033 29.3412 119.369 29.2311 118.737 29.0109ZM125.588 20.7565C125.457 20.6849 125.352 20.574 125.287 20.4394C125.244 20.3549 125.22 20.2618 125.217 20.1669C125.214 20.0721 125.233 19.9777 125.271 19.8907C125.309 19.7995 125.367 19.7171 125.438 19.6486C125.51 19.5801 125.595 19.5269 125.688 19.4923C126.218 19.2879 126.768 19.1424 127.33 19.0584C127.926 18.9762 128.532 18.9867 129.126 19.0897C129.33 19.1158 129.516 19.2215 129.643 19.3838C129.706 19.4562 129.751 19.542 129.775 19.6346C129.799 19.7272 129.802 19.8241 129.783 19.9179C129.765 20.0143 129.726 20.1058 129.67 20.1864C129.614 20.2669 129.542 20.3347 129.457 20.3851C129.285 20.5011 129.074 20.5459 128.869 20.5103C128.456 20.4334 128.034 20.4228 127.617 20.479C127.181 20.5371 126.754 20.6485 126.345 20.8107C126.241 20.8499 126.131 20.8697 126.02 20.8691C125.868 20.8715 125.719 20.8325 125.588 20.7565ZM126.604 18.5077C126.445 18.3737 126.343 18.1855 126.316 17.9799C126.302 17.8858 126.307 17.7898 126.332 17.6979C126.357 17.606 126.4 17.5202 126.46 17.4459C126.493 17.4058 126.529 17.3682 126.568 17.3333C126.714 17.2013 126.895 17.1156 127.089 17.0874C127.284 17.0592 127.482 17.0896 127.659 17.1747C127.832 17.2394 127.979 17.3597 128.076 17.5168C128.163 17.6708 128.19 17.851 128.154 18.0237C128.131 18.1658 128.071 18.2991 127.979 18.4094C127.886 18.5197 127.766 18.6027 127.63 18.6496C127.465 18.7295 127.28 18.7581 127.099 18.7317C126.918 18.7053 126.749 18.6251 126.614 18.5014L126.604 18.5077Z" fill="black"/>
<path d="M133.108 25.692C132.877 25.6943 132.654 25.6102 132.482 25.4562C132.401 25.3855 132.335 25.298 132.291 25.1997C132.246 25.1014 132.223 24.9947 132.223 24.8868C132.222 24.7784 132.245 24.6711 132.289 24.5723C132.334 24.4736 132.4 24.3858 132.482 24.3152C132.654 24.1612 132.877 24.0772 133.108 24.0795C133.59 24.09 134.071 24.0649 134.549 24.0044C134.967 23.9314 135.257 23.7958 135.398 23.5872C135.443 23.504 135.466 23.4105 135.463 23.316C135.473 23.1091 135.453 22.9019 135.405 22.7006C135.285 22.1716 135.09 21.6624 134.827 21.1882C134.774 21.0934 134.743 20.9878 134.737 20.8794C134.731 20.771 134.749 20.6626 134.791 20.5624C134.83 20.4583 134.891 20.3634 134.968 20.2837C135.046 20.204 135.139 20.1412 135.242 20.0993C135.458 20.0027 135.702 19.9915 135.926 20.068C136.035 20.0988 136.135 20.1517 136.222 20.2236C136.309 20.2954 136.38 20.3845 136.431 20.4852C136.483 20.5791 136.533 20.6771 136.581 20.7773C136.646 20.9129 136.708 21.0464 136.769 21.1799C136.908 21.5187 137.023 21.8673 137.111 22.2229C137.342 23.1616 137.278 23.898 136.919 24.432C136.542 24.9883 135.955 25.3582 135.156 25.5418C134.813 25.6161 134.464 25.6614 134.113 25.6774C133.957 25.6878 133.786 25.6961 133.596 25.7003L133.108 25.692ZM136.003 18.4889C136 18.6197 135.969 18.7483 135.913 18.8665C135.857 18.9847 135.777 19.0899 135.678 19.1752C135.487 19.3628 135.23 19.4697 134.962 19.4735C134.652 19.4595 134.352 19.3575 134.097 19.1794C133.997 19.0931 133.917 18.9872 133.861 18.8684C133.804 18.7495 133.773 18.6203 133.769 18.4889C133.78 18.3609 133.817 18.2366 133.879 18.1239C133.94 18.0111 134.024 17.9123 134.126 17.8339C134.324 17.6313 134.594 17.5138 134.877 17.5063C135.16 17.512 135.431 17.6202 135.64 17.8109C135.747 17.8899 135.835 17.9918 135.898 18.109C135.961 18.2263 135.997 18.356 136.003 18.4889Z" fill="black"/>
<path d="M139.153 25.9736C138.923 25.9552 138.708 25.8501 138.553 25.6794C138.48 25.6003 138.425 25.5064 138.392 25.4042C138.359 25.3019 138.348 25.1937 138.361 25.087C138.511 23.7994 138.553 22.5016 138.488 21.207C138.45 20.3725 138.34 19.0903 138.156 17.3603C138.143 17.2527 138.154 17.1436 138.189 17.0408C138.223 16.9381 138.28 16.8441 138.354 16.7658C138.511 16.5968 138.726 16.4938 138.955 16.4779C139.188 16.453 139.422 16.5171 139.61 16.6573C139.699 16.7197 139.774 16.8006 139.829 16.8946C139.884 16.9886 139.919 17.0934 139.929 17.2018C140.298 20.6521 140.367 23.3389 140.138 25.2622C140.126 25.3629 140.094 25.46 140.043 25.5478C139.993 25.6357 139.925 25.7124 139.844 25.7733C139.679 25.9105 139.47 25.9845 139.256 25.9819L139.153 25.9736Z" fill="black"/>
<path d="M141.865 25.3978C141.76 25.358 141.665 25.2968 141.585 25.2182C141.506 25.1395 141.443 25.0451 141.402 24.9409C141.357 24.8419 141.336 24.7337 141.34 24.625C141.344 24.5163 141.374 24.4102 141.427 24.3151C141.478 24.2145 141.549 24.1254 141.636 24.0536C141.723 23.9818 141.823 23.9288 141.932 23.8979C142.153 23.8213 142.395 23.831 142.61 23.925C142.978 24.0659 143.37 24.1326 143.763 24.1211C144.18 24.1304 144.596 24.0662 144.99 23.9313C145.137 23.8783 145.277 23.8083 145.407 23.7227C145.548 23.6386 145.666 23.5202 145.749 23.3785C145.742 23.3302 145.73 23.2827 145.714 23.2366C145.685 23.1534 145.65 23.0719 145.612 22.9925C145.464 22.713 145.286 22.45 145.082 22.2082C144.53 21.5426 143.877 20.9681 143.146 20.506C143.053 20.4488 142.972 20.3727 142.91 20.2825C142.848 20.1923 142.805 20.0901 142.785 19.9824C142.763 19.8771 142.764 19.7681 142.79 19.6636C142.816 19.5591 142.866 19.4619 142.935 19.3795C143.077 19.1977 143.285 19.0786 143.513 19.0478C143.743 19.0088 143.98 19.0588 144.174 19.1876C145.126 19.7852 145.966 20.5441 146.657 21.4301C147.458 22.4648 147.708 23.3082 147.408 23.9605C147.107 24.6127 146.514 25.1029 145.628 25.4311C145.032 25.6385 144.404 25.7415 143.772 25.7357C143.12 25.7495 142.472 25.6347 141.865 25.3978Z" fill="black"/>
<path d="M154.799 25.4459C153.877 25.1024 153.24 24.6017 152.888 23.9439C152.536 23.2861 152.514 22.5372 152.821 21.6973C152.927 21.396 153.067 21.1077 153.238 20.8378C153.374 20.626 153.529 20.427 153.701 20.2433C153.859 20.0747 154.077 19.9751 154.308 19.9658C154.541 19.9485 154.773 20.0184 154.957 20.1619C155.044 20.2271 155.116 20.3098 155.169 20.4047C155.222 20.4995 155.254 20.6045 155.264 20.7126C155.274 20.8197 155.261 20.9277 155.225 21.029C155.189 21.1303 155.131 21.2224 155.055 21.2988C154.821 21.5524 154.639 21.8503 154.521 22.175C154.361 22.6151 154.352 22.9697 154.496 23.243C154.666 23.5573 155.038 23.8111 155.614 24.0044C156.162 24.182 156.735 24.27 157.31 24.2652C158.88 24.2652 160.108 24.0566 160.994 23.6394C161.877 23.2275 162.582 22.5104 162.978 21.6201C163.062 21.4348 163.21 21.2865 163.395 21.2029C163.588 21.1173 163.804 21.0982 164.008 21.1486C164.211 21.1897 164.392 21.3013 164.52 21.4636C164.642 21.6173 164.698 21.8131 164.676 22.0081V22.0581L164.663 22.1666V22.2814L164.645 22.5087C164.629 22.666 164.624 22.8243 164.632 22.9823C164.615 23.1034 164.623 23.2268 164.655 23.3448C164.688 23.4629 164.744 23.573 164.821 23.6684C164.897 23.7638 164.993 23.8425 165.101 23.8996C165.209 23.9566 165.328 23.9909 165.45 24.0002C165.678 24.0468 165.91 24.0684 166.142 24.0649C166.373 24.0618 166.597 24.146 166.768 24.3006C166.85 24.3713 166.915 24.4587 166.96 24.5567C167.004 24.6548 167.027 24.7613 167.027 24.8691C167.027 24.9769 167.004 25.0834 166.96 25.1814C166.915 25.2795 166.85 25.3668 166.768 25.4375C166.598 25.5942 166.374 25.68 166.142 25.6774C164.995 25.6774 164.137 25.3923 163.568 24.8221C163.4 24.6484 163.26 24.45 163.151 24.2339C162.777 24.5524 162.363 24.8197 161.918 25.0287C160.77 25.5849 159.24 25.8631 157.329 25.8631C156.467 25.8794 155.61 25.738 154.799 25.4459ZM156.885 21.1361C156.754 21.0653 156.649 20.9551 156.584 20.8211C156.541 20.7362 156.517 20.643 156.514 20.5478C156.511 20.4527 156.528 20.358 156.565 20.2704C156.605 20.1798 156.662 20.098 156.734 20.0299C156.806 19.9618 156.89 19.9088 156.983 19.8741C157.512 19.6689 158.063 19.5227 158.624 19.4381C159.221 19.3555 159.827 19.3668 160.42 19.4715C160.522 19.4839 160.62 19.5163 160.709 19.5668C160.797 19.6173 160.875 19.6848 160.938 19.7656C161 19.8379 161.044 19.9235 161.068 20.0156C161.092 20.1078 161.095 20.2042 161.075 20.2975C161.058 20.3942 161.02 20.4861 160.964 20.567C160.909 20.6479 160.836 20.7161 160.752 20.7669C160.578 20.8808 160.367 20.9254 160.162 20.892C159.749 20.8144 159.327 20.8031 158.91 20.8587C158.474 20.919 158.046 21.0303 157.636 21.1904C157.532 21.2302 157.423 21.2507 157.312 21.2508C157.16 21.2539 157.009 21.2142 156.878 21.1361H156.885Z" fill="black"/>
<path d="M173.894 14.8738C173.97 14.9501 174.028 15.0422 174.064 15.1435C174.1 15.2449 174.113 15.3529 174.103 15.4599C174.093 15.5688 174.06 15.6744 174.006 15.7694C173.952 15.8644 173.879 15.9467 173.79 16.0107C172.773 16.7842 171.667 17.4327 170.496 17.9423C169.925 18.1927 169.278 18.4388 168.562 18.6829C168.982 18.8911 169.382 19.1368 169.758 19.4172C170.24 19.7636 170.686 20.1593 171.086 20.5979C171.488 21.0197 171.804 21.5157 172.017 22.0581C172.133 22.3404 172.188 22.6444 172.177 22.9496C172.165 23.2548 172.089 23.554 171.952 23.8271C171.514 24.6615 170.737 25.2129 169.62 25.4813C169.175 25.5826 168.722 25.6448 168.266 25.6669C168.058 25.6669 167.849 25.6836 167.611 25.6878H167.298H166.109C165.878 25.6901 165.655 25.606 165.483 25.4521C165.402 25.3812 165.337 25.2936 165.293 25.1954C165.249 25.0971 165.226 24.9904 165.227 24.8826C165.225 24.7744 165.247 24.6671 165.292 24.5683C165.336 24.4696 165.401 24.3817 165.483 24.311C165.655 24.1571 165.878 24.073 166.109 24.0753C167.668 24.0753 168.666 24.0266 169.103 23.9293C169.72 23.7902 170.13 23.5253 170.333 23.1345C170.442 22.9273 170.402 22.6533 170.214 22.3126C170.138 22.1741 170.052 22.0416 169.956 21.9162C169.881 21.814 169.797 21.7076 169.71 21.6158C169.394 21.2745 169.045 20.9663 168.667 20.6959C168.365 20.4646 168.041 20.264 167.699 20.0972C167.508 20.0096 167.359 19.8519 167.282 19.6571C167.243 19.5643 167.225 19.4645 167.228 19.3643C167.231 19.264 167.255 19.1655 167.298 19.075C167.053 19.1292 166.797 19.0866 166.583 18.9561C166.433 18.863 166.317 18.725 166.251 18.5619C166.21 18.4612 166.193 18.3526 166.2 18.2442C166.207 18.1358 166.239 18.0305 166.293 17.9361C166.344 17.8356 166.415 17.7467 166.502 17.6749C166.589 17.6031 166.689 17.55 166.798 17.5189C167.815 17.2178 168.817 16.8634 169.797 16.4571C170.81 16.016 171.767 15.4558 172.647 14.7882C172.831 14.6447 173.063 14.5768 173.296 14.5984C173.523 14.6109 173.737 14.7093 173.894 14.8738Z" fill="black"/>
<path d="M172.549 29.3363C172.482 29.2512 172.436 29.1523 172.413 29.0469C172.39 28.9414 172.39 28.8322 172.415 28.7271C172.439 28.6197 172.485 28.5185 172.55 28.4301C172.616 28.3416 172.699 28.268 172.795 28.214L172.945 28.1284L173.041 28.0742L173.137 28.0137L173.346 27.8823C173.521 27.7696 173.683 27.657 173.832 27.5402C174.218 27.25 174.562 26.9074 174.854 26.5222C175.628 25.4764 175.945 24.1552 175.803 22.5587C175.792 22.4514 175.806 22.343 175.842 22.2413C175.878 22.1396 175.936 22.0472 176.011 21.9704C176.169 21.8035 176.383 21.7022 176.612 21.6867C176.845 21.666 177.077 21.7346 177.261 21.8787C177.35 21.9401 177.425 22.0207 177.479 22.1145C177.533 22.2083 177.565 22.313 177.574 22.421C177.603 22.7775 177.68 23.1284 177.803 23.464C177.842 23.5599 177.888 23.6527 177.941 23.7415C177.976 23.7982 178.017 23.8513 178.062 23.9C178.129 23.9613 178.208 24.0082 178.294 24.038C178.379 24.0677 178.47 24.0797 178.561 24.0732C178.791 24.07 179.015 24.1542 179.186 24.3089C179.269 24.3792 179.335 24.4669 179.38 24.5658C179.424 24.6646 179.447 24.772 179.445 24.8805C179.446 24.9885 179.423 25.0954 179.378 25.1937C179.334 25.292 179.268 25.3795 179.186 25.45C179.015 25.6046 178.791 25.6888 178.561 25.6857C178.131 25.6932 177.707 25.5981 177.322 25.4082C177.106 26.1423 176.76 26.8313 176.299 27.4421C175.925 27.9394 175.484 28.383 174.989 28.7605C174.802 28.9003 174.601 29.04 174.389 29.1777L174.13 29.3425L174.011 29.4072L173.903 29.4718L173.775 29.549C173.626 29.6381 173.456 29.6849 173.283 29.6846C173.141 29.6909 173.001 29.6624 172.873 29.6017C172.745 29.541 172.633 29.4498 172.549 29.3363Z" fill="black"/>
<path d="M180.645 25.2225L180.553 25.1203C179.965 25.5054 179.274 25.7046 178.571 25.6919C178.34 25.6942 178.117 25.6101 177.945 25.4561C177.863 25.3857 177.798 25.2983 177.753 25.2C177.708 25.1016 177.686 24.9947 177.687 24.8867C177.686 24.7784 177.709 24.6713 177.754 24.5726C177.798 24.474 177.864 24.3862 177.945 24.3151C178.117 24.1611 178.34 24.0771 178.571 24.0794C178.843 24.0878 179.112 24.027 179.354 23.9025C179.595 23.7781 179.801 23.5941 179.952 23.368C180.079 23.179 180.18 22.9742 180.252 22.7589C180.312 22.5882 180.359 22.4132 180.392 22.2353C180.412 22.1276 180.453 22.0252 180.515 21.9349C180.577 21.8446 180.658 21.7686 180.751 21.7117C180.946 21.5826 181.182 21.5319 181.412 21.5699C181.62 21.5925 181.813 21.6895 181.955 21.8431C182.089 21.9833 182.164 22.1703 182.163 22.3646C182.164 22.4088 182.16 22.4529 182.151 22.4961C182.134 22.5565 182.113 22.6442 182.084 22.7568L182.013 23.0343C181.965 23.211 181.929 23.3908 181.905 23.5725C181.867 23.9605 181.99 24.1774 182.27 24.2212C182.795 24.2921 183.146 24.0397 183.313 23.4577C183.383 23.2207 183.425 22.9764 183.438 22.7297C183.438 22.6316 183.45 22.5211 183.45 22.4022V22.1936V22.1393C183.449 22.0322 183.471 21.926 183.515 21.8281C183.558 21.7302 183.622 21.6428 183.703 21.5719C183.872 21.4193 184.091 21.3349 184.319 21.3349C184.547 21.3349 184.767 21.4193 184.936 21.5719C185.015 21.6446 185.077 21.733 185.12 21.8315C185.162 21.93 185.183 22.0363 185.182 22.1435V22.1706C185.175 22.5884 185.191 23.0062 185.23 23.4223C185.247 23.6077 185.31 23.7858 185.415 23.9396C185.453 24.007 185.507 24.064 185.572 24.1055C185.637 24.147 185.712 24.1717 185.789 24.1774C186.333 24.1774 186.527 23.7915 186.371 23.0197C186.32 22.7556 186.25 22.4956 186.162 22.2416C186.089 22.033 185.997 21.8056 185.885 21.5448C185.841 21.4458 185.82 21.3381 185.823 21.2298C185.826 21.1214 185.854 21.0152 185.904 20.919C185.954 20.8203 186.023 20.7325 186.108 20.6609C186.192 20.5893 186.29 20.5352 186.396 20.5018C186.618 20.4217 186.862 20.4276 187.08 20.5185C187.185 20.5569 187.281 20.6168 187.362 20.6944C187.443 20.772 187.507 20.8655 187.549 20.9691C187.844 21.6241 188.054 22.3139 188.175 23.0217C188.281 23.8047 188.157 24.4305 187.802 24.8992C187.618 25.1419 187.379 25.3378 187.105 25.4707C186.688 25.6656 186.231 25.7606 185.77 25.7482C185.202 25.7641 184.65 25.5592 184.231 25.1766C184.189 25.1391 184.149 25.0994 184.112 25.0577C183.869 25.3036 183.579 25.4982 183.26 25.6301C182.941 25.7619 182.598 25.8283 182.253 25.8254C181.567 25.8275 181.022 25.6251 180.645 25.2225ZM181.961 20.2494C181.83 20.1793 181.724 20.0689 181.661 19.9344C181.617 19.8498 181.592 19.7565 181.589 19.6612C181.585 19.5659 181.604 19.471 181.642 19.3837C181.681 19.2927 181.738 19.2106 181.809 19.1424C181.881 19.0742 181.966 19.0215 182.059 18.9873C182.588 18.7822 183.138 18.636 183.699 18.5514C184.296 18.4688 184.903 18.48 185.497 18.5847C185.598 18.5973 185.696 18.6298 185.785 18.6802C185.874 18.7307 185.952 18.7982 186.014 18.8789C186.076 18.9512 186.121 19.0367 186.144 19.1289C186.168 19.2211 186.171 19.3175 186.152 19.4108C186.134 19.5078 186.096 19.5998 186.04 19.6808C185.984 19.7618 185.911 19.8298 185.826 19.8802C185.653 19.9936 185.443 20.0382 185.238 20.0053C184.825 19.9266 184.403 19.9153 183.987 19.9719C183.55 20.0321 183.122 20.1434 182.712 20.3036C182.608 20.3435 182.498 20.364 182.387 20.3641C182.239 20.3636 182.094 20.324 181.967 20.2494H181.961ZM182.977 18.0027C182.818 17.869 182.714 17.6808 182.687 17.475C182.673 17.3808 182.678 17.2848 182.703 17.1928C182.728 17.1009 182.771 17.0152 182.831 16.9409C182.864 16.898 182.9 16.8576 182.939 16.8199C183.086 16.6878 183.268 16.6022 183.463 16.574C183.658 16.5457 183.857 16.5762 184.034 16.6614C184.203 16.7283 184.345 16.8494 184.437 17.0056C184.523 17.1588 184.551 17.3384 184.514 17.5104C184.493 17.6523 184.433 17.7856 184.341 17.8959C184.249 18.0062 184.128 18.0893 183.993 18.1362C183.869 18.198 183.733 18.2294 183.594 18.228C183.37 18.2326 183.151 18.1521 182.983 18.0027H182.977Z" fill="black"/>
</g>
</g>
</g>
<defs>
<radialGradient id="paint0_radial_20_3156" cx="0" cy="0" r="1" gradientUnits="userSpaceOnUse" gradientTransform="translate(41.4828 40.5529) scale(65.4016 65.4016)">
<stop stop-color="#6200EE"/>
<stop offset="1" stop-color="#09009B"/>
</radialGradient>
<radialGradient id="paint1_radial_20_3156" cx="0" cy="0" r="1" gradientUnits="userSpaceOnUse" gradientTransform="translate(41.4828 40.5528) scale(65.4016 65.4016)">
<stop stop-color="#6200EE"/>
<stop offset="1" stop-color="#09009B"/>
</radialGradient>
<radialGradient id="paint2_radial_20_3156" cx="0" cy="0" r="1" gradientUnits="userSpaceOnUse" gradientTransform="translate(41.4828 40.5528) scale(65.4016 65.4016)">
<stop stop-color="#6200EE"/>
<stop offset="1" stop-color="#09009B"/>
</radialGradient>
<radialGradient id="paint3_radial_20_3156" cx="0" cy="0" r="1" gradientUnits="userSpaceOnUse" gradientTransform="translate(41.4828 40.5528) scale(65.4016 65.4016)">
<stop stop-color="#6200EE"/>
<stop offset="1" stop-color="#09009B"/>
</radialGradient>
<radialGradient id="paint4_radial_20_3156" cx="0" cy="0" r="1" gradientUnits="userSpaceOnUse" gradientTransform="translate(41.4827 40.5529) scale(65.4015 65.4016)">
<stop stop-color="#6200EE"/>
<stop offset="1" stop-color="#09009B"/>
</radialGradient>
<radialGradient id="paint5_radial_20_3156" cx="0" cy="0" r="1" gradientUnits="userSpaceOnUse" gradientTransform="translate(41.4828 40.5529) scale(65.4016 65.4016)">
<stop stop-color="#6200EE"/>
<stop offset="1" stop-color="#09009B"/>
</radialGradient>
<radialGradient id="paint6_radial_20_3156" cx="0" cy="0" r="1" gradientUnits="userSpaceOnUse" gradientTransform="translate(41.4828 40.553) scale(65.4016 65.4016)">
<stop stop-color="#6200EE"/>
<stop offset="1" stop-color="#09009B"/>
</radialGradient>
<radialGradient id="paint7_radial_20_3156" cx="0" cy="0" r="1" gradientUnits="userSpaceOnUse" gradientTransform="translate(41.4827 40.5528) scale(65.4016 65.4016)">
<stop stop-color="#6200EE"/>
<stop offset="1" stop-color="#09009B"/>
</radialGradient>
<clipPath id="clip0_20_3156">
<rect width="194.69" height="80.25" fill="white" transform="translate(0.929199 0.77832)"/>
</clipPath>
<clipPath id="clip1_20_3156">
<rect width="194.69" height="80.25" fill="white" transform="translate(0.929199 0.77832)"/>
</clipPath>
<clipPath id="clip2_20_3156">
<rect width="194.676" height="80.25" fill="white" transform="translate(0.936401 0.77832)"/>
</clipPath>
</defs>
</svg>
